<?xml version="1.0"?>
<svg xmlns="http://www.w3.org/2000/svg" xmlns:xlink="http://www.w3.org/1999/xlink" xmlns:svgjs="http://svgjs.com/svgjs" version="1.1" width="512" height="512" x="0" y="0" viewBox="0 0 296.392 296.392" style="enable-background:new 0 0 512 512" xml:space="preserve" class=""><rect width="296.392" height="296.392" rx="20" ry="20" fill="#f5f4f0" shape="rounded"/><g transform="matrix(0.6,0,0,0.6,59.27762756347657,59.2781982421875)">
<g xmlns="http://www.w3.org/2000/svg">
	<path d="M210.49,9.851C193.772,3.449,171.695,0,148.327,0h-0.77c-23.21,0-45.13,3.23-61.722,9.509   c-19.04,7.206-29.548,17.495-29.587,29.497c-0.002,0.69,21.704,233.209,21.704,233.209c0.194,2.088,1.298,4.048,2.901,5.4   c0.899,0.759,25.066,18.776,66.984,18.776s65.419-17.757,66.319-18.507c1.613-1.343,2.586-3.074,2.795-5.162   c0,0,23.186-232.028,23.189-232.887C240.183,27.773,229.652,17.187,210.49,9.851z M201.351,267.327   c-3.929,3.924-24.764,13.057-53.513,13.057s-49.333-8.717-54.433-13.266l-6.968-75.252C100.256,200,122.305,204,147.655,204   s49.835-4.75,61.229-11.833L201.351,267.327z M211.198,169h-0.097c-0.429,4.334-24.525,19-63.394,19   c-38.868,0-62.535-12.666-63.269-19h-0.098L77.58,96.548C94.84,106.167,118.749,111,147.961,111s52.212-4.666,70.467-14.147   L211.198,169z M202.388,86.66c-14.194,5.371-33.26,8.34-53.686,8.34h-0.688c-20.575,0-39.791-3.12-54.105-8.601   C81.19,81.53,75.51,75.773,75.521,72.225c0.006-1.628,1.234-3.715,3.781-5.958c2.071,0.985,4.271,1.927,6.6,2.818   C102.62,75.485,124.697,79,148.065,79h0.774c23.208,0,45.126-3.279,61.717-9.559c2.257-0.854,4.389-1.754,6.403-2.695   c2.5,2.237,3.698,4.313,3.693,5.934C220.641,76.199,214.989,81.891,202.388,86.66z M98.703,56.582   c13.54-4.283,30.613-6.582,48.77-6.582h0.688c18.37,0,35.646,2.455,49.329,6.881C183.73,60.895,166.793,63,148.84,63h-0.722   C129.864,63,112.644,60.765,98.703,56.582z M217.646,47.999c-2.909-1.572-6.131-3.041-9.658-4.392   C191.908,37.451,170.68,34,148.214,34h-0.74c-22.313,0-43.391,3.273-59.35,9.313c-3.466,1.312-6.639,2.738-9.508,4.269   c-4.536-3.215-6.374-6.181-6.367-8.298c0.012-3.506,5.06-9.407,19.25-14.778C106.326,18.895,126.234,16,147.558,16h0.717   c21.479,0,41.542,3.035,56.495,8.76c14.318,5.482,19.385,11.326,19.373,14.86C224.136,41.743,222.262,44.759,217.646,47.999z" fill="#153b2e" data-original="#000000" style="" class=""/>
</g>
<g xmlns="http://www.w3.org/2000/svg">
</g>
<g xmlns="http://www.w3.org/2000/svg">
</g>
<g xmlns="http://www.w3.org/2000/svg">
</g>
<g xmlns="http://www.w3.org/2000/svg">
</g>
<g xmlns="http://www.w3.org/2000/svg">
</g>
<g xmlns="http://www.w3.org/2000/svg">
</g>
<g xmlns="http://www.w3.org/2000/svg">
</g>
<g xmlns="http://www.w3.org/2000/svg">
</g>
<g xmlns="http://www.w3.org/2000/svg">
</g>
<g xmlns="http://www.w3.org/2000/svg">
</g>
<g xmlns="http://www.w3.org/2000/svg">
</g>
<g xmlns="http://www.w3.org/2000/svg">
</g>
<g xmlns="http://www.w3.org/2000/svg">
</g>
<g xmlns="http://www.w3.org/2000/svg">
</g>
<g xmlns="http://www.w3.org/2000/svg">
</g>
</g></svg>
