<svg id="Layer_1" data-name="Layer 1" xmlns="http://www.w3.org/2000/svg" viewBox="0 0 500 500"><defs><style>.cls-1{fill:#fff;}.cls-2{opacity:0.15;}.cls-3{fill:#b3814b;}.cls-4{fill:none;stroke:#000;stroke-linecap:round;stroke-linejoin:round;stroke-width:20px;}</style></defs><title>coffee-mug</title><path class="cls-1" d="M341.75,187.7v38.24c62.92,0,66.4,29.73,66.4,66.4s-29.73,59.43-66.4,59.43V390c57.79,0,104.63-39.89,104.63-97.67S434.84,187.7,341.75,187.7Z"/><path class="cls-2" d="M341.75,187.7v38.24c62.92,0,66.4,29.73,66.4,66.4s-29.73,59.43-66.4,59.43V390c57.79,0,104.63-39.89,104.63-97.67S434.84,187.7,341.75,187.7Z"/><path class="cls-1" d="M53.62,123.45H341.75a0,0,0,0,1,0,0V447.2a41.88,41.88,0,0,1-41.88,41.88H95.5A41.88,41.88,0,0,1,53.62,447.2V123.45a0,0,0,0,1,0,0Z"/><path class="cls-2" d="M293,123.45V447.2a41.88,41.88,0,0,1-41.88,41.88h48.74a41.88,41.88,0,0,0,41.88-41.88V123.45Z"/><ellipse class="cls-3" cx="197.68" cy="295.82" rx="48.38" ry="62.42" transform="translate(-140.24 184.48) rotate(-38.01)"/><path class="cls-4" d="M165.51,242.66s3.45,46,32.17,53.16c23.27,5.81,30.47,51.95,30.47,51.95"/><line class="cls-4" x1="131.72" y1="82.49" x2="131.72" y2="41.48"/><line class="cls-4" x1="263.65" y1="82.49" x2="263.65" y2="41.48"/><line class="cls-4" x1="197.62" y1="82.49" x2="197.62" y2="10.92"/><path class="cls-2" d="M235.8,266a76.71,76.71,0,0,0-22.1-19.34c15.23,25.65,13.49,55.68-5.43,70.46-14.69,11.48-35.81,10.69-54.46,0a79.56,79.56,0,0,0,5.76,8.51c21.23,27.16,55.5,35.84,76.55,19.39S257,293.19,235.8,266Z"/><path class="cls-4" d="M53.62,123.45H341.75a0,0,0,0,1,0,0V447.2a41.88,41.88,0,0,1-41.88,41.88H95.5A41.88,41.88,0,0,1,53.62,447.2V123.45a0,0,0,0,1,0,0Z"/><path class="cls-4" d="M341.75,187.7v38.24c62.92,0,66.4,29.73,66.4,66.4s-29.73,59.43-66.4,59.43V390c57.79,0,104.63-39.89,104.63-97.67S434.84,187.7,341.75,187.7Z"/><ellipse class="cls-4" cx="197.68" cy="295.82" rx="48.38" ry="62.42" transform="translate(-140.24 184.48) rotate(-38.01)"/></svg>