<?xml version="1.0"?>
<svg xmlns="http://www.w3.org/2000/svg" xmlns:xlink="http://www.w3.org/1999/xlink" xmlns:svgjs="http://svgjs.com/svgjs" version="1.1" width="512" height="512" x="0" y="0" viewBox="0 0 512 512" style="enable-background:new 0 0 512 512" xml:space="preserve" class=""><rect width="512" height="512" rx="20" ry="20" fill="#f5f4f0" shape="rounded"/><g transform="matrix(-0.6,0,0,0.6,409.6,102.4000030517578)">
<g xmlns="http://www.w3.org/2000/svg">
	<g>
		<path d="M99.575,57.469C44.669,57.469,0,102.139,0,157.044s44.669,99.575,99.575,99.575h64.958    c13.335,38.01,24.112,75.679,24.112,118.922l-0.168,78.99h253.83l0.167-78.957c0-53.417,16.423-98.305,33.809-145.829    C493.843,181.748,512,132.115,512,73.143V57.469H99.575z M417.331,88.816c-2.879,36.222-15.282,70.122-29.365,108.617    c-10.924,29.858-23.156,63.294-31.049,100.362h-82.716c-7.893-37.069-20.126-70.504-31.049-100.362    c-14.083-38.495-26.486-72.395-29.365-108.617H417.331z M99.575,225.272c-37.62,0-68.228-30.607-68.228-68.228    c0-37.621,30.607-68.228,68.228-68.228h19.975c2.736,50.423,18.197,94.164,33.65,136.455H99.575z M411.027,423.184H219.89    l0.067-31.347h191.136L411.027,423.184z M446.844,218.973c-16.043,43.855-32.579,89.08-35.314,141.517H219.587    c-2.74-52.452-19.272-97.668-35.313-141.517c-15.66-42.803-30.537-83.47-33.337-130.157h31.415    c2.78,41.234,16.144,77.791,31.362,119.387c11.74,32.091,25.047,68.463,32.173,108.044l2.322,12.896H382.91l2.322-12.896    c7.126-39.582,20.433-75.953,32.173-108.043c15.218-41.596,28.581-78.153,31.362-119.387h31.415    C477.381,135.503,462.504,176.17,446.844,218.973z" fill="#153b2e" data-original="#000000" style=""/>
	</g>
</g>
<g xmlns="http://www.w3.org/2000/svg">
</g>
<g xmlns="http://www.w3.org/2000/svg">
</g>
<g xmlns="http://www.w3.org/2000/svg">
</g>
<g xmlns="http://www.w3.org/2000/svg">
</g>
<g xmlns="http://www.w3.org/2000/svg">
</g>
<g xmlns="http://www.w3.org/2000/svg">
</g>
<g xmlns="http://www.w3.org/2000/svg">
</g>
<g xmlns="http://www.w3.org/2000/svg">
</g>
<g xmlns="http://www.w3.org/2000/svg">
</g>
<g xmlns="http://www.w3.org/2000/svg">
</g>
<g xmlns="http://www.w3.org/2000/svg">
</g>
<g xmlns="http://www.w3.org/2000/svg">
</g>
<g xmlns="http://www.w3.org/2000/svg">
</g>
<g xmlns="http://www.w3.org/2000/svg">
</g>
<g xmlns="http://www.w3.org/2000/svg">
</g>
</g></svg>
