<?xml version="1.0"?>
<svg xmlns="http://www.w3.org/2000/svg" xmlns:xlink="http://www.w3.org/1999/xlink" xmlns:svgjs="http://svgjs.com/svgjs" version="1.1" width="512" height="512" x="0" y="0" viewBox="0 0 512 512" style="enable-background:new 0 0 512 512" xml:space="preserve" class=""><rect width="512" height="512" rx="20" ry="20" fill="#f5f4f0" shape="rounded" transform="matrix(1,0,0,1,0,0)"/><g transform="matrix(0.6000000000000001,0,0,0.6000000000000001,102.39999694824212,102.39999847412116)"><g xmlns="http://www.w3.org/2000/svg"><path d="m412.801 165.157h-28.653c-7.05-57.567-54.569-102.797-113.148-106.289v-28.868h62.952v-30h-92.952v58.868c-58.579 3.491-106.098 48.722-113.147 106.289h-28.654v83.257h14.223l30.403 263.586h224.35l30.403-263.585h14.223zm-283.602 53.258v-23.257h253.602v23.257zm224.653-53.258h-82.852v-76.207c42.019 3.338 76.128 35.217 82.852 76.207zm-112.852-76.207v76.207h-82.852c6.724-40.99 40.833-72.869 82.852-76.207zm100.437 393.05h-170.874l-26.942-233.585h224.757z" fill="#153b2e" data-original="#000000" style="" class=""/><path d="m256 446.081c18.438 0 35.53-8.905 48.131-25.073 11.74-15.064 18.205-34.881 18.205-55.8s-6.465-40.736-18.205-55.8c-12.601-16.169-29.693-25.073-48.131-25.073s-35.53 8.904-48.131 25.073c-11.74 15.063-18.205 34.88-18.205 55.8 0 20.919 6.465 40.736 18.205 55.8 12.601 16.168 29.694 25.073 48.131 25.073zm36.336-80.873c0 16.31-5.822 31.119-14.653 40.501.114-2.131.178-4.376.178-6.767 0-19.802-4.231-30.207-7.966-39.387-3.215-7.906-5.755-14.15-5.755-28.084 0-6.42.573-11.26 1.438-15.249 15.224 6.055 26.758 26.031 26.758 48.986zm-58.019-40.501c-.114 2.13-.177 4.373-.177 6.763 0 19.801 4.231 30.207 7.966 39.387 3.215 7.906 5.755 14.15 5.755 28.084 0 6.422-.573 11.263-1.438 15.252-15.225-6.055-26.758-26.031-26.758-48.986-.001-16.309 5.821-31.119 14.652-40.5z" fill="#153b2e" data-original="#000000" style="" class=""/></g></g></svg>
