<?xml version="1.0"?>
<svg xmlns="http://www.w3.org/2000/svg" xmlns:xlink="http://www.w3.org/1999/xlink" xmlns:svgjs="http://svgjs.com/svgjs" version="1.1" width="512" height="512" x="0" y="0" viewBox="0 0 512 512" style="enable-background:new 0 0 512 512" xml:space="preserve" class=""><rect width="512" height="512" rx="20" ry="20" fill="#f5f4f0" shape="rounded"/><g transform="matrix(0.6,0,0,0.6,102.40000305175784,102.39999694824218)"><path xmlns="http://www.w3.org/2000/svg" d="m419.251 221.866c-8.641 0-16.809 2.049-24.061 5.669v-38.755h-32.095c3.729-7.373 5.843-15.696 5.843-24.507 0-30.055-24.451-54.507-54.507-54.507h-1.004c7.898-11.319 12.548-25.065 12.548-39.883.001-38.534-31.349-69.883-69.882-69.883h-31.987v31.521c0 4.853-3.948 8.801-8.802 8.801h-57.681c-27.417 0-49.722 22.305-49.722 49.722 0 7.005 1.463 13.672 4.089 19.722h-2.545c-30.056 0-54.507 24.452-54.507 54.507 0 8.812 2.115 17.134 5.843 24.507h-22.093v114.309c0 33.046 9.175 65.378 26.534 93.499l71.246 115.412h160.941l71.246-115.413c3.597-5.827 6.822-11.844 9.707-18.001l49.591-14.089.288-.085c26.959-8.247 45.071-32.729 45.071-60.921v-27.564c.001-29.81-24.251-54.061-54.061-54.061zm-281.35-131.822c0-10.875 8.847-19.722 19.722-19.722h57.681c21.396 0 38.802-17.406 38.802-38.801v-1.521h1.987c21.991 0 39.883 17.892 39.883 39.883s-17.892 39.883-39.883 39.883h-98.47c-10.875 0-19.722-8.847-19.722-19.722zm-52.963 74.229c0-13.513 10.994-24.507 24.507-24.507h204.986c13.513 0 24.507 10.994 24.507 24.507s-10.994 24.507-24.507 24.507h-204.986c-13.512 0-24.507-10.994-24.507-24.507zm195.735 317.727h-127.469l-22.224-36h171.916zm84.517-178.911c0 27.477-7.629 54.359-22.063 77.74l-21.711 35.171h-208.955l-21.712-35.171c-14.433-23.381-22.062-50.263-22.062-77.74v-84.309h40.758 204.986 50.759zm78.123.402c0 14.871-9.523 27.791-23.715 32.193l-29.185 8.291c3.146-13.334 4.778-27.045 4.778-40.886v-27.162c0-13.267 10.794-24.061 24.061-24.061 13.268 0 24.062 10.794 24.062 24.061v27.564z" fill="#153b2e" data-original="#000000" style=""/></g></svg>
